<svg width="20" height="20" viewBox="0 0 20 20" fill="none" xmlns="http://www.w3.org/2000/svg">
<g id="Design">
<path id="Vector" d="M17.7229 5.00024C16.5947 5.00024 15.6717 5.86223 15.5076 6.98299H12.1229V5.00024H7.61019V6.98299H4.47179C4.28721 5.86227 3.36419 5.00024 2.25644 5.00024C1.00518 5.00024 0 6.05631 0 7.37099C0 8.68564 1.00515 9.74174 2.25644 9.74174C3.20009 9.74174 4.00007 9.1383 4.34875 8.27631H5.64107C3.44616 9.65546 2 12.5 2.76918 16H4C3.5 12.5 5.04628 9.59057 7.61034 8.75006V9.74151H12.1231V8.75006C14.6871 9.59057 17 12.5 16 16H17.2308C18 12 16.2871 9.65523 14.1128 8.27593H15.6513C15.9999 9.13791 16.7999 9.74136 17.7436 9.74136C18.9948 9.74136 20 8.68529 20 7.37061C19.9999 6.05612 18.9742 5.00024 17.7229 5.00024Z" fill="#5D95E8"/>
</g>
</svg>
